<svg xmlns="http://www.w3.org/2000/svg" xmlns:xlink="http://www.w3.org/1999/xlink" version="1.1" width="1280" height="1024" viewBox="0 0 1280 1024" xml:space="preserve">
<desc>Created with Fabric.js 5.3.0</desc>
<defs>
</defs>
<g transform="matrix(1 0 0 1 640 512)" id="background-logo">
<rect style="stroke: none; stroke-width: 0; stroke-dasharray: none; stroke-linecap: butt; stroke-dashoffset: 0; stroke-linejoin: miter; stroke-miterlimit: 4; fill: rgb(255,255,255); fill-rule: nonzero; opacity: 1;" paint-order="stroke" x="-640" y="-512" rx="0" ry="0" width="1280" height="1024"></rect>
</g>
<g transform="matrix(1.9211538461538462 0 0 1.9211538461538462 640 402.8998277045295)" id="logo-logo">
<g style="" paint-order="stroke">
		<g transform="matrix(0.20707188231079274 0 0 0.20707188231079274 5.6060747140373905 0.9131624733261958)">

</g>
		<g transform="matrix(0.20707188231079274 0 0 0.20707188231079274 -8.961893875001408 -15.609359943982128)">
<linearGradient id="SVGID_681573_8590" gradientUnits="userSpaceOnUse" gradientTransform="matrix(1 0 0 1 0 0)" x1="951.413068" y1="328.9424018" x2="325.4769295" y2="923.6684282">
<stop offset="0%" style="stop-color:rgb(191,150,73);stop-opacity: 1"></stop>
<stop offset="100%" style="stop-color:rgb(140,78,3);stop-opacity: 1"></stop>
</linearGradient>
<path style="stroke: none; stroke-width: 1; stroke-dasharray: none; stroke-linecap: butt; stroke-dashoffset: 0; stroke-linejoin: miter; stroke-miterlimit: 4; fill: url(&quot;#SVGID_681573_8590&quot;); fill-rule: nonzero; opacity: 1; visibility: hidden;" paint-order="stroke" transform=" translate(-596.7208601917279, -564.6186713841012)" d="M 1003.4417114 464.0776978 L 938.9985962000001 435.8296509 C 751.3045044 784.6315308000001 276.0726929000001 981.2119141000001 194.8250733000001 897.2904053 C 174.9665528000001 876.7783203 221.0215455000001 832.9638672 249.1973267000001 819.6707154 C 231.4248658000001 839.3214721999999 191.9787598000001 893.7946777999999 279.1069947000001 874.0935669999999 C 402.4813233000001 846.1965942999999 682.0667725000001 677.2476807999999 821.2118531000001 382.05200209999987 L 758.9624635000001 351.51898209999985 L 972.2315675000001 212.66290299999986 L 1003.4417115000001 464.07769789999986 Z" stroke-linecap="round" data-index="1"></path>
</g>
		<g transform="matrix(0.20707188231079274 0 0 0.20707188231079274 -34.427432878652496 24.772035558262075)">

</g>
		<g transform="matrix(0.20707188231079274 0 0 0.20707188231079274 -14.644339553401153 2.7139320474132376)">
<path style="stroke: none; stroke-width: 1; stroke-dasharray: none; stroke-linecap: butt; stroke-dashoffset: 0; stroke-linejoin: miter; stroke-miterlimit: 4; fill: rgb(191, 150, 73); fill-rule: nonzero; opacity: 1; visibility: hidden;" paint-order="stroke" transform=" translate(-569.2789611999999, -653.1062622)" d="M 614.9877319 587.8172607 L 352.95397949999995 523.9186401000001 C 388.74188229999993 430.68017570000006 464.82775879999997 357.41876220000006 559.9041138 325.4829101 L 614.987732 587.8172607 Z M 670.9328613 980.7296143 C 685.0698852 980.5703735999999 698.9966430000001 979.5434571 712.6633911 977.6912841999999 L 712.6633911 776.1477660999999 L 670.9328613 776.1477660999999 L 670.9328613 980.7296141999999 Z M 597.9923096 973.6643066 C 611.6168213 976.5099487 625.546875 978.5187378 639.7227784 979.6604004000001 L 639.7227784 825.9560547000001 L 597.9923096 825.9560547000001 L 597.9923096 973.6643067000001 Z M 743.8734741 719.8326416 L 743.8734741 971.9611206 C 758.1574095999999 968.625 772.0844116 964.3663329999999 785.6039429 959.2743529999999 L 785.6039429 719.8326415999999 L 743.8734741 719.8326415999999 Z" stroke-linecap="round" data-index="3"></path>
</g>
		<g transform="matrix(0.20707188231079274 0 0 0.20707188231079274 32.460020616248244 -2.7223304895231024)">

</g>
</g>
</g>
<g transform="matrix(1.9211538461538462 0 0 1.9211538461538462 639.7760842660757 666.4407108725551)" id="text-logo">
<g style="" paint-order="stroke">
		<g transform="matrix(1 0 0 1 0 0)" id="text-logo-path-0">
<linearGradient id="SVGID_8591" gradientUnits="userSpaceOnUse" gradientTransform="matrix(1 0 0 1 1.8300000000000125 -39.48)" x1="237.80196151733398" y1="-8.87516093749997" x2="237.80196151733398" y2="53.12483906250003">
<stop offset="8%" style="stop-color:rgb(242,216,136);stop-opacity: 1"></stop>
<stop offset="38.5%" style="stop-color:rgb(191,150,73);stop-opacity: 1"></stop>
<stop offset="96%" style="stop-color:rgb(140,78,3);stop-opacity: 1"></stop>
</linearGradient>
<filter id="SVGID_8587" y="-25.05178075271533%" height="150.10356150543066%" x="-20.624882834468536%" width="141.24976566893707%">
	<feGaussianBlur in="SourceAlpha" stdDeviation="0"></feGaussianBlur>
	<feOffset dx="1.9999999999999996" dy="1.9999999999999996" result="oBlur"></feOffset>
	<feFlood flood-color="rgb(51,51,51)" flood-opacity="1"></feFlood>
	<feComposite in2="oBlur" operator="in"></feComposite>
	<feMerge>
		<feMergeNode></feMergeNode>
		<feMergeNode in="SourceGraphic"></feMergeNode>
	</feMerge>
</filter>
<path style="stroke: rgb(140, 78, 3); stroke-width: 2; stroke-dasharray: none; stroke-linecap: butt; stroke-dashoffset: 0; stroke-linejoin: miter; stroke-miterlimit: 4; fill: url(&quot;#SVGID_8591&quot;); fill-rule: nonzero; opacity: 1; filter: url(&quot;#SVGID_8587&quot;); visibility: hidden;" paint-order="stroke" transform=" translate(-161.86, 19.685)" d="M 5.77 -0.05 L 1.83 -0.05 L 1.83 -2.42 Q 1.83 -3.22 2.63 -3.41 L 2.63 -3.41 L 5.83 -4.08 L 5.83 -35.42 Q 3.12 -35.96 2.63 -36.07 L 2.63 -36.07 Q 1.83 -36.25 1.83 -37.06 L 1.83 -37.06 L 1.83 -39.48 L 5.77 -39.48 L 16.38 -39.48 Q 20.03 -39.48 22.88 -38.73 L 22.88 -38.73 Q 25.59 -38 27.39 -36.52 L 27.39 -36.52 Q 29.22 -35.02 30.02 -33.06 L 30.02 -33.06 Q 30.86 -31.02 30.86 -28.49 L 30.86 -28.49 Q 30.86 -26.53 30.19 -24.65 L 30.19 -24.65 Q 29.54 -22.88 28.28 -21.35 Q 27.02 -19.82 25.24 -18.85 L 25.24 -18.85 Q 23.15 -17.7 21.16 -17.27 L 21.16 -17.27 Q 22.21 -16.68 22.93 -15.63 L 22.93 -15.63 L 31.45 -3.95 Q 34.27 -3.49 34.54 -3.41 L 34.54 -3.41 L 34.48 -3.41 Q 35.31 -3.22 35.31 -2.42 L 35.31 -2.42 L 35.31 0 L 34.32 0 L 31.34 0 L 29.59 0 Q 28.14 0 27.5 -1.15 L 27.5 -1.15 L 17.27 -15.23 Q 16.84 -15.79 16.27 -16.17 L 16.27 -16.17 Q 15.79 -16.49 14.64 -16.49 L 14.64 -16.49 L 11.12 -16.49 L 11.12 -4.08 Q 13.75 -3.52 14.18 -3.41 L 14.18 -3.41 Q 14.56 -3.33 14.81 -3.05 Q 15.07 -2.77 15.07 -2.42 L 15.07 -2.42 L 15.07 -0.05 L 11.12 -0.05 L 5.77 -0.05 Z M 11.06 -35.21 L 11.06 -20.36 L 16.11 -20.36 L 16.06 -20.36 Q 18.48 -20.36 20.2 -20.89 L 20.2 -20.89 Q 21.81 -21.4 23.15 -22.56 L 23.15 -22.56 Q 24.38 -23.63 24.98 -24.98 L 24.98 -24.98 Q 25.57 -26.35 25.57 -28.17 L 25.57 -28.17 Q 25.57 -31.61 23.26 -33.44 L 23.26 -33.44 Q 21 -35.21 16.38 -35.21 L 16.38 -35.21 L 11.06 -35.21 Z M 55.21 0 L 41.97 0 L 41.97 -2.36 Q 41.97 -3.25 42.72 -3.41 L 42.72 -3.41 L 45.92 -4.03 L 45.92 -35.42 Q 43.26 -35.91 42.62 -36.07 Q 41.97 -36.23 41.97 -37.06 L 41.97 -37.06 L 41.97 -39.37 L 55.21 -39.37 L 55.21 -37.06 Q 55.21 -36.17 54.38 -36.01 L 54.38 -36.01 L 51.21 -35.42 L 51.21 -4.03 Q 53.68 -3.57 54.57 -3.36 L 54.57 -3.36 Q 55.21 -3.2 55.21 -2.36 L 55.21 -2.36 L 55.21 0 Z M 61.14 -36.95 L 61.14 -36.95 L 61.14 -39.37 L 74.22 -39.37 L 74.22 -36.95 Q 74.22 -36.07 73.12 -35.91 L 73.12 -35.91 Q 72.77 -35.85 71.83 -35.64 Q 70.89 -35.42 70.27 -35.31 L 70.27 -35.31 L 80.35 -10.29 Q 80.99 -8.78 81.66 -5.99 L 81.66 -5.99 Q 82.36 -9.02 82.92 -10.34 L 82.92 -10.34 L 92.89 -35.37 Q 90.23 -35.85 89.74 -36.01 L 89.74 -36.01 Q 88.91 -36.17 88.91 -37.06 L 88.91 -37.06 L 88.91 -39.37 L 101.94 -39.32 L 101.94 -36.95 Q 101.94 -36.12 101.18 -35.96 L 101.18 -35.96 L 98.42 -35.31 L 83.97 0.11 L 79.19 0.11 L 64.77 -35.31 Q 62.43 -35.8 61.98 -35.96 L 61.98 -35.96 Q 61.14 -36.12 61.14 -36.95 Z M 136.42 0 L 108.16 0 L 108.16 -2.31 Q 108.16 -3.2 108.97 -3.36 L 108.97 -3.36 L 112.11 -3.95 L 112.11 -35.37 Q 109.45 -35.85 108.97 -36.01 L 108.97 -36.01 Q 108.16 -36.17 108.16 -37.06 L 108.16 -37.06 L 108.16 -39.37 L 136.42 -39.37 L 136.42 -29.86 L 133.78 -29.86 Q 132.79 -29.86 132.63 -30.8 L 132.63 -30.8 Q 132.63 -30.86 132.59 -31.34 Q 132.55 -31.82 132.44 -32.87 Q 132.33 -33.92 132.25 -35.05 L 132.25 -35.05 L 117.51 -35.05 L 117.51 -21.94 L 132.01 -21.94 L 132.01 -17.78 L 117.51 -17.78 L 117.51 -4.3 L 132.25 -4.3 Q 132.58 -7.92 132.58 -8.24 L 132.58 -8.24 Q 132.71 -9.13 133.78 -9.13 L 133.78 -9.13 L 136.42 -9.13 L 136.42 0 Z M 147.64 -0.05 L 143.69 -0.05 L 143.69 -2.42 Q 143.69 -3.22 144.5 -3.41 L 144.5 -3.41 L 147.69 -4.08 L 147.69 -35.42 Q 144.98 -35.96 144.5 -36.07 L 144.5 -36.07 Q 143.69 -36.25 143.69 -37.06 L 143.69 -37.06 L 143.69 -39.48 L 147.64 -39.48 L 158.25 -39.48 Q 161.9 -39.48 164.75 -38.73 L 164.75 -38.73 Q 167.46 -38 169.26 -36.52 L 169.26 -36.52 Q 171.08 -35.02 171.89 -33.06 L 171.89 -33.06 Q 172.72 -31.02 172.72 -28.49 L 172.72 -28.49 Q 172.72 -26.53 172.05 -24.65 L 172.05 -24.65 Q 171.41 -22.88 170.14 -21.35 Q 168.88 -19.82 167.11 -18.85 L 167.11 -18.85 Q 165.01 -17.7 163.03 -17.27 L 163.03 -17.27 Q 164.07 -16.68 164.8 -15.63 L 164.8 -15.63 L 173.31 -3.95 Q 176.13 -3.49 176.4 -3.41 L 176.4 -3.41 L 176.35 -3.41 Q 177.18 -3.22 177.18 -2.42 L 177.18 -2.42 L 177.18 0 L 176.19 0 L 173.2 0 L 171.46 0 Q 170.01 0 169.36 -1.15 L 169.36 -1.15 L 159.13 -15.23 Q 158.7 -15.79 158.14 -16.17 L 158.14 -16.17 Q 157.66 -16.49 156.5 -16.49 L 156.5 -16.49 L 152.98 -16.49 L 152.98 -4.08 Q 155.61 -3.52 156.04 -3.41 L 156.04 -3.41 Q 156.42 -3.33 156.68 -3.05 Q 156.93 -2.77 156.93 -2.42 L 156.93 -2.42 L 156.93 -0.05 L 152.98 -0.05 L 147.64 -0.05 Z M 152.93 -35.21 L 152.93 -20.36 L 157.98 -20.36 L 157.92 -20.36 Q 160.34 -20.36 162.06 -20.89 L 162.06 -20.89 Q 163.67 -21.4 165.01 -22.56 L 165.01 -22.56 Q 166.25 -23.63 166.84 -24.98 L 166.84 -24.98 Q 167.43 -26.35 167.43 -28.17 L 167.43 -28.17 Q 167.43 -31.61 165.12 -33.44 L 165.12 -33.44 Q 162.87 -35.21 158.25 -35.21 L 158.25 -35.21 L 152.93 -35.21 Z M 196.97 0 L 183.84 0 L 183.84 -2.42 Q 183.84 -3.25 184.7 -3.41 L 184.7 -3.41 L 187.78 -4.08 L 187.78 -35.42 Q 185.23 -35.88 184.7 -36.07 L 184.7 -36.07 Q 183.84 -36.23 183.84 -37.06 L 183.84 -37.06 L 183.84 -39.48 L 191.76 -39.48 Q 192.54 -39.48 192.86 -39.32 L 192.86 -39.32 Q 193.32 -39.07 193.56 -38.62 L 193.56 -38.62 L 207.15 -14.29 Q 207.71 -13.35 208.41 -11.44 L 208.41 -11.44 Q 208.79 -12.54 209.67 -14.37 L 209.67 -14.37 L 222.99 -38.62 Q 223.21 -39.05 223.74 -39.32 L 223.74 -39.32 Q 224.07 -39.48 224.84 -39.48 L 224.84 -39.48 L 232.77 -39.48 L 232.77 -37.06 Q 232.77 -36.23 231.91 -36.07 L 231.91 -36.07 L 228.77 -35.42 L 228.77 -4.08 Q 231.24 -3.63 231.91 -3.41 L 231.91 -3.41 Q 232.77 -3.25 232.77 -2.42 L 232.77 -2.42 L 232.77 0 L 219.58 0 L 219.58 -2.42 Q 219.58 -3.25 220.41 -3.41 L 220.41 -3.41 Q 222.16 -3.76 224.09 -4.08 L 224.09 -4.08 L 224.09 -28.98 Q 224.09 -30.7 224.2 -31.58 L 224.2 -31.58 L 210.67 -6.93 Q 210.02 -5.67 208.79 -5.67 L 208.79 -5.67 L 208.03 -5.67 Q 206.69 -5.67 206.05 -6.93 L 206.05 -6.93 L 192.3 -31.64 L 192.35 -31.69 Q 192.51 -30.21 192.51 -29.03 L 192.51 -29.03 L 192.51 -4.08 Q 195.14 -3.65 196.24 -3.41 L 196.24 -3.41 Q 196.97 -3.25 196.97 -2.42 L 196.97 -2.42 L 196.97 0 Z M 252.82 0 L 239.59 0 L 239.59 -2.36 Q 239.59 -3.25 240.34 -3.41 L 240.34 -3.41 L 243.53 -4.03 L 243.53 -35.42 Q 240.87 -35.91 240.23 -36.07 Q 239.59 -36.23 239.59 -37.06 L 239.59 -37.06 L 239.59 -39.37 L 252.82 -39.37 L 252.82 -37.06 Q 252.82 -36.17 251.99 -36.01 L 251.99 -36.01 L 248.82 -35.42 L 248.82 -4.03 Q 251.29 -3.57 252.18 -3.36 L 252.18 -3.36 Q 252.82 -3.2 252.82 -2.36 L 252.82 -2.36 L 252.82 0 Z M 263.59 0 L 259.64 0 L 259.64 -2.36 Q 259.64 -2.74 259.87 -3.03 Q 260.1 -3.33 260.45 -3.41 L 260.45 -3.41 L 263.59 -4.03 L 263.59 -35.42 Q 260.93 -35.91 260.45 -36.01 L 260.45 -36.01 Q 260.1 -36.09 259.87 -36.39 Q 259.64 -36.68 259.64 -37.06 L 259.64 -37.06 L 259.64 -39.37 L 263.59 -39.37 L 268.88 -39.37 L 272.83 -39.37 L 272.83 -37.06 Q 272.83 -36.68 272.59 -36.39 Q 272.35 -36.09 272 -36.01 L 272 -36.01 Q 271.67 -35.93 270.32 -35.68 Q 268.96 -35.42 268.88 -35.42 L 268.88 -35.42 L 268.88 -4.51 L 283.06 -4.51 Q 283.25 -7.09 283.38 -7.65 L 283.38 -7.65 Q 283.46 -8.06 283.8 -8.31 Q 284.14 -8.57 284.54 -8.57 L 284.54 -8.57 L 287.25 -8.57 L 287.25 0 L 285.93 0 L 285.48 0 L 263.59 0 Z M 298.23 0 L 294.28 0 L 294.28 -2.36 Q 294.28 -2.74 294.51 -3.03 Q 294.74 -3.33 295.09 -3.41 L 295.09 -3.41 L 298.23 -4.03 L 298.23 -35.42 Q 295.57 -35.91 295.09 -36.01 L 295.09 -36.01 Q 294.74 -36.09 294.51 -36.39 Q 294.28 -36.68 294.28 -37.06 L 294.28 -37.06 L 294.28 -39.37 L 298.23 -39.37 L 303.52 -39.37 L 307.47 -39.37 L 307.47 -37.06 Q 307.47 -36.68 307.23 -36.39 Q 306.99 -36.09 306.64 -36.01 L 306.64 -36.01 Q 306.31 -35.93 304.96 -35.68 Q 303.6 -35.42 303.52 -35.42 L 303.52 -35.42 L 303.52 -4.51 L 317.7 -4.51 Q 317.89 -7.09 318.02 -7.65 L 318.02 -7.65 Q 318.1 -8.06 318.44 -8.31 Q 318.78 -8.57 319.18 -8.57 L 319.18 -8.57 L 321.89 -8.57 L 321.89 0 L 320.57 0 L 320.12 0 L 298.23 0 Z" stroke-linecap="round" data-index="5"></path>
</g>
</g>
</g>
<g transform="matrix(1.9211538461538462 0 0 1.9211538461538462 639.9994934457632 759.6854285559987)" id="tagline-648ffb76-7c02-460e-a5a2-5f6bb181fabc-logo">
<g style="" paint-order="stroke">
		<g transform="matrix(1 0 0 1 0 0)" id="tagline-648ffb76-7c02-460e-a5a2-5f6bb181fabc-logo-path-0">

</g>
</g>
</g>
</svg>