<?xml version="1.0" encoding="UTF-8" standalone="no" ?>
<!DOCTYPE svg PUBLIC "-//W3C//DTD SVG 1.1//EN" "http://www.w3.org/Graphics/SVG/1.1/DTD/svg11.dtd">
<svg xmlns="http://www.w3.org/2000/svg" xmlns:xlink="http://www.w3.org/1999/xlink" version="1.1" width="1280" height="1024" viewBox="0 0 1280 1024" xml:space="preserve">
<desc>Created with Fabric.js 5.3.0</desc>
<defs>
</defs>
<g transform="matrix(1 0 0 1 640 512)" id="background-logo"  >
<rect style="stroke: none; stroke-width: 0; stroke-dasharray: none; stroke-linecap: butt; stroke-dashoffset: 0; stroke-linejoin: miter; stroke-miterlimit: 4; fill: rgb(255,255,255); fill-rule: nonzero; opacity: 1;"  paint-order="stroke"  x="-640" y="-512" rx="0" ry="0" width="1280" height="1024" />
</g>
<g transform="matrix(1.9211538461538462 0 0 1.9211538461538462 640 402.8998277045295)" id="logo-logo"  >
<g style=""  paint-order="stroke"   >
		<g transform="matrix(0.20707188231079274 0 0 0.20707188231079274 5.6060747140373905 0.9131624733261958)"  >
<path style="stroke: none; stroke-width: 1; stroke-dasharray: none; stroke-linecap: butt; stroke-dashoffset: 0; stroke-linejoin: miter; stroke-miterlimit: 4; fill: rgb(51,51,51); fill-rule: nonzero; opacity: 1;"  paint-order="stroke"  transform=" translate(-667.0730896999999, -644.40991215)" d="M 294.9950562 644.4098511 C 294.9950562 707.9945068999999 311.03997810000004 767.8972168 339.2740479 820.303711 C 321.36944580000005 828.2579346 305.2490235 834.3254395 291.3084107 838.6634522 C 286.3113404 828.9983521 281.65887460000005 819.1274415 277.39221200000003 809.0401612000001 C 255.33172620000002 756.8832398000001 244.14617930000003 701.4937745000001 244.14617930000003 644.4098511000001 C 244.14617930000003 587.3265991000001 255.33172620000002 531.9365235 277.39221200000003 479.7796021000001 C 298.6951295 429.4145508000001 329.1857911 384.18780520000007 368.01885990000005 345.3553467000001 C 406.85137940000004 306.5222779000001 452.07806400000004 276.0316162000001 502.44311530000004 254.7286988000001 C 554.6000367 232.6682130000001 609.989502 221.4826661000001 667.072815 221.4826661000001 C 724.1566773 221.4826661000001 779.5461425999999 232.6682130000001 831.703064 254.7286988000001 C 835.5268555 256.3459473000001 839.3104859 258.0343018000001 843.0744019 259.7571412000001 L 791.0829468 293.6078492000001 C 752.2747192999999 279.84826670000007 710.5380859999999 272.33154300000007 667.072815 272.33154300000007 C 461.90838629999996 272.33154300000007 294.99505619999996 439.24487310000006 294.99505619999996 644.4098511000001 Z M 1056.7539062 479.7796021 C 1049.0664062 461.60455329999996 1040.1641845000001 444.1100464 1030.123413 427.33227539999996 L 1034.2108153 460.2583008 C 1035.5686034 471.19616699999995 1031.0183104 482.03234869999994 1022.2579954999999 488.72149659999997 C 1017.9357908999999 492.0219727 1012.9052732999999 494.046814 1007.6962889999999 494.76885989999994 C 1027.9025877999998 540.585022 1039.1511229999999 591.2048950999999 1039.1511229999999 644.4098511 C 1039.1511229999999 849.5748902 872.2377928999999 1016.4882201999999 667.0728148999999 1016.4882201999999 C 568.5651244999999 1016.4882201999999 478.89007559999993 977.9935302999999 412.26025389999995 915.2764281999998 C 393.4614258 922.0726317999998 375.1709595 927.8739623999999 357.57910159999994 932.6108397999998 C 360.99670409999993 936.2756346999997 364.46051029999995 939.9060057999998 368.01885989999994 943.4643553999998 C 406.8513793999999 982.2974241999998 452.0780639999999 1012.7881468999998 502.44311529999993 1034.0910643999998 C 554.6000366999999 1056.1508788999997 609.9895019999999 1067.3371581999997 667.072815 1067.3371581999997 C 724.1566773 1067.3371581999997 779.5461425999999 1056.1508788999997 831.703064 1034.0910643999998 C 882.0687256 1012.7881468999998 927.2954712000001 982.2974242999999 966.1273194 943.4643553999998 C 1004.9603882 904.6312865999998 1035.4510499 859.4046019999998 1056.7539063 809.0401610999998 C 1078.8150635 756.8832396999998 1090.0000000999999 701.4937743999998 1090.0000000999999 644.4098509999998 C 1090.0000000999999 587.3259886999998 1078.8150635999998 531.9365233999997 1056.7539063 479.7796019999998 Z" stroke-linecap="round" />
</g>
		<g transform="matrix(0.20707188231079274 0 0 0.20707188231079274 -8.961893875001408 -15.609359943982128)"  >
<linearGradient id="SVGID_681573_8590" gradientUnits="userSpaceOnUse" gradientTransform="matrix(1 0 0 1 0 0)"  x1="951.413068" y1="328.9424018" x2="325.4769295" y2="923.6684282">
<stop offset="0%" style="stop-color:rgb(191,150,73);stop-opacity: 1"/>
<stop offset="100%" style="stop-color:rgb(140,78,3);stop-opacity: 1"/>
</linearGradient>
<path style="stroke: none; stroke-width: 1; stroke-dasharray: none; stroke-linecap: butt; stroke-dashoffset: 0; stroke-linejoin: miter; stroke-miterlimit: 4; fill: url(#SVGID_681573_8590); fill-rule: nonzero; opacity: 1;"  paint-order="stroke"  transform=" translate(-596.7208601917279, -564.6186713841012)" d="M 1003.4417114 464.0776978 L 938.9985962000001 435.8296509 C 751.3045044 784.6315308000001 276.0726929000001 981.2119141000001 194.8250733000001 897.2904053 C 174.9665528000001 876.7783203 221.0215455000001 832.9638672 249.1973267000001 819.6707154 C 231.4248658000001 839.3214721999999 191.9787598000001 893.7946777999999 279.1069947000001 874.0935669999999 C 402.4813233000001 846.1965942999999 682.0667725000001 677.2476807999999 821.2118531000001 382.05200209999987 L 758.9624635000001 351.51898209999985 L 972.2315675000001 212.66290299999986 L 1003.4417115000001 464.07769789999986 Z" stroke-linecap="round" />
</g>
		<g transform="matrix(0.20707188231079274 0 0 0.20707188231079274 -34.427432878652496 24.772035558262075)"  >
<path style="stroke: none; stroke-width: 1; stroke-dasharray: none; stroke-linecap: butt; stroke-dashoffset: 0; stroke-linejoin: miter; stroke-miterlimit: 4; fill: rgb(242,216,136); fill-rule: nonzero; opacity: 1;"  paint-order="stroke"  transform=" translate(-473.74163810000005, -759.6301575000001)" d="M 616.7786865 620.4580078 C 584.2845459 653.8343506 552.6935425 681.7218017 524.8112182000001 704.1510010000001 C 469.4215698000001 748.7081299 416.5041503000001 781.8338623000001 371.39880360000006 804.9154053000001 C 345.44903550000004 757.2133179000001 330.70458970000004 702.5338745000001 330.70458970000004 644.4098511000001 C 330.70458970000004 612.9841309000001 335.027954 582.5706177000001 343.08831770000006 553.7167359000001 L 616.7786864000001 620.4580079000001 Z M 493.8416748 932.7545166 L 493.8416748 880.9910278 C 478.8682251 888.1151733 464.02313230000004 894.7505493 449.3991699 900.8292236 C 463.2854004 912.6288452 478.1519775 923.305664 493.8416748 932.7545166 Z M 525.0517578 949.3765259 C 538.5022583 955.6535645 552.4351807 961.0652466 566.7822266000001 965.5435791000001 L 566.7822266000001 865.8356323 L 525.0517578 865.8356323 L 525.0517578 949.3765259 Z" stroke-linecap="round" />
</g>
		<g transform="matrix(0.20707188231079274 0 0 0.20707188231079274 -14.644339553401153 2.7139320474132376)"  >
<path style="stroke: none; stroke-width: 1; stroke-dasharray: none; stroke-linecap: butt; stroke-dashoffset: 0; stroke-linejoin: miter; stroke-miterlimit: 4; fill: rgb(191,150,73); fill-rule: nonzero; opacity: 1;"  paint-order="stroke"  transform=" translate(-569.2789611999999, -653.1062622)" d="M 614.9877319 587.8172607 L 352.95397949999995 523.9186401000001 C 388.74188229999993 430.68017570000006 464.82775879999997 357.41876220000006 559.9041138 325.4829101 L 614.987732 587.8172607 Z M 670.9328613 980.7296143 C 685.0698852 980.5703735999999 698.9966430000001 979.5434571 712.6633911 977.6912841999999 L 712.6633911 776.1477660999999 L 670.9328613 776.1477660999999 L 670.9328613 980.7296141999999 Z M 597.9923096 973.6643066 C 611.6168213 976.5099487 625.546875 978.5187378 639.7227784 979.6604004000001 L 639.7227784 825.9560547000001 L 597.9923096 825.9560547000001 L 597.9923096 973.6643067000001 Z M 743.8734741 719.8326416 L 743.8734741 971.9611206 C 758.1574095999999 968.625 772.0844116 964.3663329999999 785.6039429 959.2743529999999 L 785.6039429 719.8326415999999 L 743.8734741 719.8326415999999 Z" stroke-linecap="round" />
</g>
		<g transform="matrix(0.20707188231079274 0 0 0.20707188231079274 32.460020616248244 -2.7223304895231024)"  >
<path style="stroke: none; stroke-width: 1; stroke-dasharray: none; stroke-linecap: butt; stroke-dashoffset: 0; stroke-linejoin: miter; stroke-miterlimit: 4; fill: rgb(140,78,3); fill-rule: nonzero; opacity: 1;"  paint-order="stroke"  transform=" translate(-796.75726315, -626.8532409)" d="M 745.3081665 379.355957 L 779.6624145 396.206665 C 740.7868652 471.6222534 693.8468017 535.4633178 646.9996337 588.0198974 L 590.0728759 316.9074096 C 614.8023071 311.1155395 640.5779418 308.04132069999997 667.0731810999999 308.04132069999997 C 696.4866943 308.04132069999997 725.0138549 311.82781969999996 752.2056884 318.92028799999997 L 742.045349 325.5355224 C 732.696472 331.6221313 727.3383788 342.2608642 728.01416 353.3949584 C 728.6887816 364.53027330000003 735.2932126999999 374.4435424 745.3081662999999 379.3559569 Z M 889.7545776 896.4884644 C 904.9463500999999 883.0581665 918.9278564 868.2909546 931.4850464 852.3450928 L 931.4850464 568.2435912999999 L 889.7545776 568.2435912999999 L 889.7545776 896.4884642999999 Z M 962.6951294 483.8641357 L 962.6951294 805.0089720999999 C 988.6766968000001 757.2846678999999 1003.4416504000001 702.5721434999999 1003.4416504000001 644.4098509999999 C 1003.4416504000001 586.2636717999999 988.6643677000001 531.5784910999998 962.6951294 483.8641356999999 Z M 816.8140259 945.6651611 C 831.3543701000001 938.4238280999999 845.2944947000001 930.1626587 858.5444947000001 920.9719848 L 858.5444947000001 651.6328123999999 L 816.8140259 651.6328123999999 L 816.8140259 945.6651609999999 Z" stroke-linecap="round" />
</g>
</g>
</g>
<g transform="matrix(1.9211538461538462 0 0 1.9211538461538462 639.7760842660757 666.4407108725551)" id="text-logo"  >
<g style=""  paint-order="stroke"   >
		<g transform="matrix(1 0 0 1 0 0)" id="text-logo-path-0"  >
<linearGradient id="SVGID_8591" gradientUnits="userSpaceOnUse" gradientTransform="matrix(1 0 0 1 1.8300000000000125 -39.48)"  x1="237.80196151733398" y1="-8.87516093749997" x2="237.80196151733398" y2="53.12483906250003">
<stop offset="8%" style="stop-color:rgb(242,216,136);stop-opacity: 1"/>
<stop offset="38.5%" style="stop-color:rgb(191,150,73);stop-opacity: 1"/>
<stop offset="96%" style="stop-color:rgb(140,78,3);stop-opacity: 1"/>
</linearGradient>
<filter id="SVGID_8587" y="-25.05178075271533%" height="150.10356150543066%" x="-20.624882834468536%" width="141.24976566893707%" >
	<feGaussianBlur in="SourceAlpha" stdDeviation="0"></feGaussianBlur>
	<feOffset dx="1.9999999999999996" dy="1.9999999999999996" result="oBlur" ></feOffset>
	<feFlood flood-color="rgb(51,51,51)" flood-opacity="1"/>
	<feComposite in2="oBlur" operator="in" />
	<feMerge>
		<feMergeNode></feMergeNode>
		<feMergeNode in="SourceGraphic"></feMergeNode>
	</feMerge>
</filter>
<path style="stroke: rgb(140,78,3); stroke-width: 1.9999999999999996; stroke-dasharray: none; stroke-linecap: butt; stroke-dashoffset: 0; stroke-linejoin: miter; stroke-miterlimit: 4; fill: url(#SVGID_8591); fill-rule: nonzero; opacity: 1;filter: url(#SVGID_8587);"  paint-order="stroke"  transform=" translate(-161.86, 19.685)" d="M 5.77 -0.05 L 1.83 -0.05 L 1.83 -2.42 Q 1.83 -3.22 2.63 -3.41 L 2.63 -3.41 L 5.83 -4.08 L 5.83 -35.42 Q 3.12 -35.96 2.63 -36.07 L 2.63 -36.07 Q 1.83 -36.25 1.83 -37.06 L 1.83 -37.06 L 1.83 -39.48 L 5.77 -39.48 L 16.38 -39.48 Q 20.03 -39.48 22.88 -38.73 L 22.88 -38.73 Q 25.59 -38 27.39 -36.52 L 27.39 -36.52 Q 29.22 -35.02 30.02 -33.06 L 30.02 -33.06 Q 30.86 -31.02 30.86 -28.49 L 30.86 -28.49 Q 30.86 -26.53 30.19 -24.65 L 30.19 -24.65 Q 29.54 -22.88 28.28 -21.35 Q 27.02 -19.82 25.24 -18.85 L 25.24 -18.85 Q 23.15 -17.7 21.16 -17.27 L 21.16 -17.27 Q 22.21 -16.68 22.93 -15.63 L 22.93 -15.63 L 31.45 -3.95 Q 34.27 -3.49 34.54 -3.41 L 34.54 -3.41 L 34.48 -3.41 Q 35.31 -3.22 35.31 -2.42 L 35.31 -2.42 L 35.31 0 L 34.32 0 L 31.34 0 L 29.59 0 Q 28.14 0 27.5 -1.15 L 27.5 -1.15 L 17.27 -15.23 Q 16.84 -15.79 16.27 -16.17 L 16.27 -16.17 Q 15.79 -16.49 14.64 -16.49 L 14.64 -16.49 L 11.12 -16.49 L 11.12 -4.08 Q 13.75 -3.52 14.18 -3.41 L 14.18 -3.41 Q 14.56 -3.33 14.81 -3.05 Q 15.07 -2.77 15.07 -2.42 L 15.07 -2.42 L 15.07 -0.05 L 11.12 -0.05 L 5.77 -0.05 Z M 11.06 -35.21 L 11.06 -20.36 L 16.11 -20.36 L 16.06 -20.36 Q 18.48 -20.36 20.2 -20.89 L 20.2 -20.89 Q 21.81 -21.4 23.15 -22.56 L 23.15 -22.56 Q 24.38 -23.63 24.98 -24.98 L 24.98 -24.98 Q 25.57 -26.35 25.57 -28.17 L 25.57 -28.17 Q 25.57 -31.61 23.26 -33.44 L 23.26 -33.44 Q 21 -35.21 16.38 -35.21 L 16.38 -35.21 L 11.06 -35.21 Z M 55.21 0 L 41.97 0 L 41.97 -2.36 Q 41.97 -3.25 42.72 -3.41 L 42.72 -3.41 L 45.92 -4.03 L 45.92 -35.42 Q 43.26 -35.91 42.62 -36.07 Q 41.97 -36.23 41.97 -37.06 L 41.97 -37.06 L 41.97 -39.37 L 55.21 -39.37 L 55.21 -37.06 Q 55.21 -36.17 54.38 -36.01 L 54.38 -36.01 L 51.21 -35.42 L 51.21 -4.03 Q 53.68 -3.57 54.57 -3.36 L 54.57 -3.36 Q 55.21 -3.2 55.21 -2.36 L 55.21 -2.36 L 55.21 0 Z M 61.14 -36.95 L 61.14 -36.95 L 61.14 -39.37 L 74.22 -39.37 L 74.22 -36.95 Q 74.22 -36.07 73.12 -35.91 L 73.12 -35.91 Q 72.77 -35.85 71.83 -35.64 Q 70.89 -35.42 70.27 -35.31 L 70.27 -35.31 L 80.35 -10.29 Q 80.99 -8.78 81.66 -5.99 L 81.66 -5.99 Q 82.36 -9.02 82.92 -10.34 L 82.92 -10.34 L 92.89 -35.37 Q 90.23 -35.85 89.74 -36.01 L 89.74 -36.01 Q 88.91 -36.17 88.91 -37.06 L 88.91 -37.06 L 88.91 -39.37 L 101.94 -39.32 L 101.94 -36.95 Q 101.94 -36.12 101.18 -35.96 L 101.18 -35.96 L 98.42 -35.31 L 83.97 0.11 L 79.19 0.11 L 64.77 -35.31 Q 62.43 -35.8 61.98 -35.96 L 61.98 -35.96 Q 61.14 -36.12 61.14 -36.95 Z M 136.42 0 L 108.16 0 L 108.16 -2.31 Q 108.16 -3.2 108.97 -3.36 L 108.97 -3.36 L 112.11 -3.95 L 112.11 -35.37 Q 109.45 -35.85 108.97 -36.01 L 108.97 -36.01 Q 108.16 -36.17 108.16 -37.06 L 108.16 -37.06 L 108.16 -39.37 L 136.42 -39.37 L 136.42 -29.86 L 133.78 -29.86 Q 132.79 -29.86 132.63 -30.8 L 132.63 -30.8 Q 132.63 -30.86 132.59 -31.34 Q 132.55 -31.82 132.44 -32.87 Q 132.33 -33.92 132.25 -35.05 L 132.25 -35.05 L 117.51 -35.05 L 117.51 -21.94 L 132.01 -21.94 L 132.01 -17.78 L 117.51 -17.78 L 117.51 -4.3 L 132.25 -4.3 Q 132.58 -7.92 132.58 -8.24 L 132.58 -8.24 Q 132.71 -9.13 133.78 -9.13 L 133.78 -9.13 L 136.42 -9.13 L 136.42 0 Z M 147.64 -0.05 L 143.69 -0.05 L 143.69 -2.42 Q 143.69 -3.22 144.5 -3.41 L 144.5 -3.41 L 147.69 -4.08 L 147.69 -35.42 Q 144.98 -35.96 144.5 -36.07 L 144.5 -36.07 Q 143.69 -36.25 143.69 -37.06 L 143.69 -37.06 L 143.69 -39.48 L 147.64 -39.48 L 158.25 -39.48 Q 161.9 -39.48 164.75 -38.73 L 164.75 -38.73 Q 167.46 -38 169.26 -36.52 L 169.26 -36.52 Q 171.08 -35.02 171.89 -33.06 L 171.89 -33.06 Q 172.72 -31.02 172.72 -28.49 L 172.72 -28.49 Q 172.72 -26.53 172.05 -24.65 L 172.05 -24.65 Q 171.41 -22.88 170.14 -21.35 Q 168.88 -19.82 167.11 -18.85 L 167.11 -18.85 Q 165.01 -17.7 163.03 -17.27 L 163.03 -17.27 Q 164.07 -16.68 164.8 -15.63 L 164.8 -15.63 L 173.31 -3.95 Q 176.13 -3.49 176.4 -3.41 L 176.4 -3.41 L 176.35 -3.41 Q 177.18 -3.22 177.18 -2.42 L 177.18 -2.42 L 177.18 0 L 176.19 0 L 173.2 0 L 171.46 0 Q 170.01 0 169.36 -1.15 L 169.36 -1.15 L 159.13 -15.23 Q 158.7 -15.79 158.14 -16.17 L 158.14 -16.17 Q 157.66 -16.49 156.5 -16.49 L 156.5 -16.49 L 152.98 -16.49 L 152.98 -4.08 Q 155.61 -3.52 156.04 -3.41 L 156.04 -3.41 Q 156.42 -3.33 156.68 -3.05 Q 156.93 -2.77 156.93 -2.42 L 156.93 -2.42 L 156.93 -0.05 L 152.98 -0.05 L 147.64 -0.05 Z M 152.93 -35.21 L 152.93 -20.36 L 157.98 -20.36 L 157.92 -20.36 Q 160.34 -20.36 162.06 -20.89 L 162.06 -20.89 Q 163.67 -21.4 165.01 -22.56 L 165.01 -22.56 Q 166.25 -23.63 166.84 -24.98 L 166.84 -24.98 Q 167.43 -26.35 167.43 -28.17 L 167.43 -28.17 Q 167.43 -31.61 165.12 -33.44 L 165.12 -33.44 Q 162.87 -35.21 158.25 -35.21 L 158.25 -35.21 L 152.93 -35.21 Z M 196.97 0 L 183.84 0 L 183.84 -2.42 Q 183.84 -3.25 184.7 -3.41 L 184.7 -3.41 L 187.78 -4.08 L 187.78 -35.42 Q 185.23 -35.88 184.7 -36.07 L 184.7 -36.07 Q 183.84 -36.23 183.84 -37.06 L 183.84 -37.06 L 183.84 -39.48 L 191.76 -39.48 Q 192.54 -39.48 192.86 -39.32 L 192.86 -39.32 Q 193.32 -39.07 193.56 -38.62 L 193.56 -38.62 L 207.15 -14.29 Q 207.71 -13.35 208.41 -11.44 L 208.41 -11.44 Q 208.79 -12.54 209.67 -14.37 L 209.67 -14.37 L 222.99 -38.62 Q 223.21 -39.05 223.74 -39.32 L 223.74 -39.32 Q 224.07 -39.48 224.84 -39.48 L 224.84 -39.48 L 232.77 -39.48 L 232.77 -37.06 Q 232.77 -36.23 231.91 -36.07 L 231.91 -36.07 L 228.77 -35.42 L 228.77 -4.08 Q 231.24 -3.63 231.91 -3.41 L 231.91 -3.41 Q 232.77 -3.25 232.77 -2.42 L 232.77 -2.42 L 232.77 0 L 219.58 0 L 219.58 -2.42 Q 219.58 -3.25 220.41 -3.41 L 220.41 -3.41 Q 222.16 -3.76 224.09 -4.08 L 224.09 -4.08 L 224.09 -28.98 Q 224.09 -30.7 224.2 -31.58 L 224.2 -31.58 L 210.67 -6.93 Q 210.02 -5.67 208.79 -5.67 L 208.79 -5.67 L 208.03 -5.67 Q 206.69 -5.67 206.05 -6.93 L 206.05 -6.93 L 192.3 -31.64 L 192.35 -31.69 Q 192.51 -30.21 192.51 -29.03 L 192.51 -29.03 L 192.51 -4.08 Q 195.14 -3.65 196.24 -3.41 L 196.24 -3.41 Q 196.97 -3.25 196.97 -2.42 L 196.97 -2.42 L 196.97 0 Z M 252.82 0 L 239.59 0 L 239.59 -2.36 Q 239.59 -3.25 240.34 -3.41 L 240.34 -3.41 L 243.53 -4.03 L 243.53 -35.42 Q 240.87 -35.91 240.23 -36.07 Q 239.59 -36.23 239.59 -37.06 L 239.59 -37.06 L 239.59 -39.37 L 252.82 -39.37 L 252.82 -37.06 Q 252.82 -36.17 251.99 -36.01 L 251.99 -36.01 L 248.82 -35.42 L 248.82 -4.03 Q 251.29 -3.57 252.18 -3.36 L 252.18 -3.36 Q 252.82 -3.2 252.82 -2.36 L 252.82 -2.36 L 252.82 0 Z M 263.59 0 L 259.64 0 L 259.64 -2.36 Q 259.64 -2.74 259.87 -3.03 Q 260.1 -3.33 260.45 -3.41 L 260.45 -3.41 L 263.59 -4.03 L 263.59 -35.42 Q 260.93 -35.91 260.45 -36.01 L 260.45 -36.01 Q 260.1 -36.09 259.87 -36.39 Q 259.64 -36.68 259.64 -37.06 L 259.64 -37.06 L 259.64 -39.37 L 263.59 -39.37 L 268.88 -39.37 L 272.83 -39.37 L 272.83 -37.06 Q 272.83 -36.68 272.59 -36.39 Q 272.35 -36.09 272 -36.01 L 272 -36.01 Q 271.67 -35.93 270.32 -35.68 Q 268.96 -35.42 268.88 -35.42 L 268.88 -35.42 L 268.88 -4.51 L 283.06 -4.51 Q 283.25 -7.09 283.38 -7.65 L 283.38 -7.65 Q 283.46 -8.06 283.8 -8.31 Q 284.14 -8.57 284.54 -8.57 L 284.54 -8.57 L 287.25 -8.57 L 287.25 0 L 285.93 0 L 285.48 0 L 263.59 0 Z M 298.23 0 L 294.28 0 L 294.28 -2.36 Q 294.28 -2.74 294.51 -3.03 Q 294.74 -3.33 295.09 -3.41 L 295.09 -3.41 L 298.23 -4.03 L 298.23 -35.42 Q 295.57 -35.91 295.09 -36.01 L 295.09 -36.01 Q 294.74 -36.09 294.51 -36.39 Q 294.28 -36.68 294.28 -37.06 L 294.28 -37.06 L 294.28 -39.37 L 298.23 -39.37 L 303.52 -39.37 L 307.47 -39.37 L 307.47 -37.06 Q 307.47 -36.68 307.23 -36.39 Q 306.99 -36.09 306.64 -36.01 L 306.64 -36.01 Q 306.31 -35.93 304.96 -35.68 Q 303.6 -35.42 303.52 -35.42 L 303.52 -35.42 L 303.52 -4.51 L 317.7 -4.51 Q 317.89 -7.09 318.02 -7.65 L 318.02 -7.65 Q 318.1 -8.06 318.44 -8.31 Q 318.78 -8.57 319.18 -8.57 L 319.18 -8.57 L 321.89 -8.57 L 321.89 0 L 320.57 0 L 320.12 0 L 298.23 0 Z" stroke-linecap="round" />
</g>
</g>
</g>
<g transform="matrix(1.9211538461538462 0 0 1.9211538461538462 639.9994934457632 759.6854285559987)" id="tagline-648ffb76-7c02-460e-a5a2-5f6bb181fabc-logo"  >
<g style=""  paint-order="stroke"   >
		<g transform="matrix(1 0 0 1 0 0)" id="tagline-648ffb76-7c02-460e-a5a2-5f6bb181fabc-logo-path-0"  >
<path style="stroke: none; stroke-width: 0; stroke-dasharray: none; stroke-linecap: butt; stroke-dashoffset: 0; stroke-linejoin: miter; stroke-miterlimit: 4; fill: rgb(140,78,3); fill-rule: nonzero; opacity: 1;"  paint-order="stroke"  transform=" translate(-121.50000000000001, 9.684999999999999)" d="M 7.45 0 L 0.92 0 L 0.92 -1.13 Q 0.92 -1.57 1.32 -1.65 L 1.32 -1.65 L 2.86 -1.94 L 2.86 -17.36 Q 1.56 -17.6 1.32 -17.68 L 1.32 -17.68 Q 0.92 -17.76 0.92 -18.19 L 0.92 -18.19 L 0.92 -19.33 L 2.86 -19.33 L 15.25 -19.33 L 15.25 -14.66 L 13.94 -14.66 Q 13.47 -14.66 13.39 -15.12 L 13.39 -15.12 Q 13.39 -15.15 13.36 -15.39 Q 13.33 -15.62 13.28 -16.13 Q 13.22 -16.64 13.17 -17.2 L 13.17 -17.2 L 5.51 -17.2 L 5.51 -10.43 L 12.85 -10.43 L 12.85 -8.32 L 5.51 -8.32 L 5.51 -1.94 Q 5.6 -1.91 5.79 -1.88 Q 5.99 -1.85 6.34 -1.78 Q 6.7 -1.71 7.01 -1.65 L 7.01 -1.65 Q 7.45 -1.56 7.45 -1.13 L 7.45 -1.13 L 7.45 0 Z M 35.07 0 L 28.57 0 L 28.57 -1.16 Q 28.57 -1.6 28.94 -1.67 L 28.94 -1.67 L 30.51 -1.98 L 30.51 -17.39 Q 29.2 -17.63 28.89 -17.71 Q 28.57 -17.78 28.57 -18.19 L 28.57 -18.19 L 28.57 -19.33 L 35.07 -19.33 L 35.07 -18.19 Q 35.07 -17.76 34.66 -17.68 L 34.66 -17.68 L 33.11 -17.39 L 33.11 -1.98 Q 34.32 -1.75 34.75 -1.65 L 34.75 -1.65 Q 35.07 -1.57 35.07 -1.16 L 35.07 -1.16 L 35.07 0 Z M 55.1 0.03 L 48.68 0.03 L 48.68 -1.13 Q 48.68 -1.54 49.07 -1.62 L 49.07 -1.62 L 50.61 -1.94 L 50.61 -17.34 Q 49.31 -17.57 49.07 -17.65 L 49.07 -17.65 Q 48.68 -17.73 48.68 -18.17 L 48.68 -18.17 L 48.68 -19.33 L 51.96 -19.33 Q 52.32 -19.33 52.47 -19.25 L 52.47 -19.25 Q 52.61 -19.18 52.88 -18.91 L 52.88 -18.91 L 64.06 -4.32 L 64.06 -4.27 Q 64.01 -4.65 64.01 -5.62 L 64.01 -5.62 L 64.01 -17.34 Q 63.55 -17.4 63.15 -17.47 Q 62.74 -17.55 62.5 -17.6 Q 62.26 -17.65 62.23 -17.65 L 62.23 -17.65 Q 61.79 -17.75 61.79 -18.14 L 61.79 -18.14 L 61.79 -19.33 L 64.01 -19.33 L 66.3 -19.33 L 68.27 -19.33 L 68.27 -18.14 Q 68.27 -17.73 67.85 -17.65 L 67.85 -17.65 L 66.3 -17.34 L 66.3 0.03 L 64.99 0.03 Q 64.43 0.03 64.06 -0.44 L 64.06 -0.44 L 52.86 -15.02 Q 52.91 -14.55 52.91 -13.76 L 52.91 -13.76 L 52.91 -1.94 Q 53.74 -1.82 54.72 -1.62 L 54.72 -1.62 Q 55.1 -1.54 55.1 -1.13 L 55.1 -1.13 L 55.1 0.03 Z M 86.41 0 L 80.87 0 L 80.87 -1.08 Q 80.87 -1.42 81.23 -1.52 L 81.23 -1.52 L 82.31 -1.83 L 89.32 -19.33 L 91.97 -19.33 L 98.96 -1.83 L 100.04 -1.52 Q 100.4 -1.42 100.4 -1.08 L 100.4 -1.08 L 100.4 0 L 94.83 0 L 94.83 -1.08 Q 94.83 -1.44 95.22 -1.52 L 95.22 -1.52 L 96.32 -1.83 L 94.81 -5.72 L 86.46 -5.72 L 84.95 -1.83 L 86.05 -1.52 Q 86.41 -1.44 86.41 -1.08 L 86.41 -1.08 L 86.41 0 Z M 90.09 -15.04 L 87.19 -7.62 L 94.08 -7.62 L 91.22 -15.07 Q 90.89 -15.82 90.63 -16.88 L 90.63 -16.88 Q 90.3 -15.64 90.09 -15.04 L 90.09 -15.04 Z M 120.27 0.03 L 113.85 0.03 L 113.85 -1.13 Q 113.85 -1.54 114.24 -1.62 L 114.24 -1.62 L 115.78 -1.94 L 115.78 -17.34 Q 114.48 -17.57 114.24 -17.65 L 114.24 -17.65 Q 113.85 -17.73 113.85 -18.17 L 113.85 -18.17 L 113.85 -19.33 L 117.13 -19.33 Q 117.49 -19.33 117.64 -19.25 L 117.64 -19.25 Q 117.78 -19.18 118.05 -18.91 L 118.05 -18.91 L 129.23 -4.32 L 129.23 -4.27 Q 129.18 -4.65 129.18 -5.62 L 129.18 -5.62 L 129.18 -17.34 Q 128.72 -17.4 128.32 -17.47 Q 127.91 -17.55 127.67 -17.6 Q 127.43 -17.65 127.4 -17.65 L 127.4 -17.65 Q 126.96 -17.75 126.96 -18.14 L 126.96 -18.14 L 126.96 -19.33 L 129.18 -19.33 L 131.47 -19.33 L 133.44 -19.33 L 133.44 -18.14 Q 133.44 -17.73 133.02 -17.65 L 133.02 -17.65 L 131.47 -17.34 L 131.47 0.03 L 130.15 0.03 Q 129.6 0.03 129.23 -0.44 L 129.23 -0.44 L 118.03 -15.02 Q 118.08 -14.55 118.08 -13.76 L 118.08 -13.76 L 118.08 -1.94 Q 118.91 -1.82 119.88 -1.62 L 119.88 -1.62 Q 120.27 -1.54 120.27 -1.13 L 120.27 -1.13 L 120.27 0.03 Z M 146.35 -9.66 L 146.35 -9.66 Q 146.35 -14.01 149.05 -16.8 L 149.05 -16.8 Q 151.72 -19.55 156.23 -19.55 L 156.23 -19.55 L 156.18 -19.58 Q 158.49 -19.58 162.17 -18.19 L 162.17 -18.19 L 162.17 -16.69 L 162.17 -13.66 L 160.87 -13.66 Q 160.36 -13.66 160.28 -14.15 L 160.28 -14.15 Q 160.25 -14.23 160.18 -15.36 L 160.18 -15.36 Q 160.15 -15.66 160.12 -15.95 Q 160.1 -16.23 160.08 -16.38 Q 160.06 -16.53 160.06 -16.57 L 160.06 -16.57 Q 157.82 -17.28 155.98 -17.28 L 155.98 -17.28 Q 152.9 -17.28 150.96 -15.25 L 150.96 -15.25 Q 149 -13.13 149 -9.66 L 149 -9.66 Q 149 -6.14 150.93 -4.05 L 150.93 -4.05 Q 152.77 -2.06 155.72 -2.06 L 155.72 -2.06 Q 157.38 -2.06 158.28 -2.37 L 158.28 -2.37 Q 159.71 -2.91 160.65 -3.78 L 160.65 -3.78 Q 160.9 -3.99 161.09 -3.99 L 161.09 -3.99 Q 161.36 -3.99 161.52 -3.84 L 161.52 -3.84 L 162.55 -2.7 Q 160.03 0.21 155.57 0.21 L 155.57 0.21 Q 151.41 0.21 148.89 -2.54 L 148.89 -2.54 Q 146.35 -5.33 146.35 -9.66 Z M 182.19 0 L 175.69 0 L 175.69 -1.16 Q 175.69 -1.6 176.06 -1.67 L 176.06 -1.67 L 177.63 -1.98 L 177.63 -17.39 Q 176.33 -17.63 176.01 -17.71 Q 175.69 -17.78 175.69 -18.19 L 175.69 -18.19 L 175.69 -19.33 L 182.19 -19.33 L 182.19 -18.19 Q 182.19 -17.76 181.78 -17.68 L 181.78 -17.68 L 180.23 -17.39 L 180.23 -1.98 Q 181.44 -1.75 181.88 -1.65 L 181.88 -1.65 Q 182.19 -1.57 182.19 -1.16 L 182.19 -1.16 L 182.19 0 Z M 201.09 0 L 195.55 0 L 195.55 -1.08 Q 195.55 -1.42 195.91 -1.52 L 195.91 -1.52 L 196.99 -1.83 L 204 -19.33 L 206.65 -19.33 L 213.64 -1.83 L 214.72 -1.52 Q 215.08 -1.42 215.08 -1.08 L 215.08 -1.08 L 215.08 0 L 209.51 0 L 209.51 -1.08 Q 209.51 -1.44 209.89 -1.52 L 209.89 -1.52 L 211 -1.83 L 209.49 -5.72 L 201.14 -5.72 L 199.62 -1.83 L 200.73 -1.52 Q 201.09 -1.44 201.09 -1.08 L 201.09 -1.08 L 201.09 0 Z M 204.77 -15.04 L 201.87 -7.62 L 208.76 -7.62 L 205.9 -15.07 Q 205.57 -15.82 205.31 -16.88 L 205.31 -16.88 Q 204.98 -15.64 204.77 -15.04 L 204.77 -15.04 Z M 230.46 0 L 228.52 0 L 228.52 -1.16 Q 228.52 -1.34 228.64 -1.49 Q 228.75 -1.63 228.92 -1.67 L 228.92 -1.67 L 230.46 -1.98 L 230.46 -17.39 Q 229.16 -17.63 228.92 -17.68 L 228.92 -17.68 Q 228.75 -17.72 228.64 -17.86 Q 228.52 -18.01 228.52 -18.19 L 228.52 -18.19 L 228.52 -19.33 L 230.46 -19.33 L 233.06 -19.33 L 235 -19.33 L 235 -18.19 Q 235 -18.01 234.88 -17.86 Q 234.76 -17.72 234.59 -17.68 L 234.59 -17.68 Q 234.43 -17.64 233.76 -17.51 Q 233.1 -17.39 233.06 -17.39 L 233.06 -17.39 L 233.06 -2.21 L 240.02 -2.21 Q 240.11 -3.48 240.18 -3.76 L 240.18 -3.76 Q 240.22 -3.96 240.38 -4.08 Q 240.55 -4.21 240.75 -4.21 L 240.75 -4.21 L 242.08 -4.21 L 242.08 0 L 241.43 0 L 241.21 0 L 230.46 0 Z" stroke-linecap="round" />
</g>
</g>
</g>
</svg>